<?xml version="1.0" encoding="utf-8"?>
<!-- Generator: Adobe Illustrator 24.0.0, SVG Export Plug-In . SVG Version: 6.00 Build 0)  -->
<svg version="1.1" id="Layer_1" xmlns="http://www.w3.org/2000/svg" xmlns:xlink="http://www.w3.org/1999/xlink" x="0px" y="0px"
	 viewBox="0 0 190 45" style="enable-background:new 0 0 190 45;" xml:space="preserve">
<style type="text/css">
	.st0{fill:url(#SVGID_1_);}
	.st1{fill:#7B7B7B;}
	.st2{fill:#FFFFFF;}
	.st3{fill:url(#SVGID_2_);stroke:#FFFFFF;stroke-width:1.172;}
	.st4{fill:url(#SVGID_3_);stroke:#FFFFFF;stroke-width:1.172;}
	.st5{fill:url(#SVGID_4_);stroke:#FFFFFF;stroke-width:1.172;}
	.st6{fill:url(#SVGID_5_);stroke:#FFFFFF;stroke-width:1.172;}
	.st7{fill:url(#SVGID_6_);stroke:#FFFFFF;stroke-width:1.172;}
	.st8{fill:url(#SVGID_7_);stroke:#FFFFFF;stroke-width:1.172;}
	.st9{fill:url(#SVGID_8_);stroke:#FFFFFF;stroke-width:1.172;}
	.st10{fill:url(#SVGID_9_);stroke:#FFFFFF;stroke-width:1.172;}
	.st11{fill:url(#SVGID_10_);stroke:#FFFFFF;stroke-width:1.172;}
	.st12{fill:url(#SVGID_11_);stroke:#FFFFFF;stroke-width:1.172;}
	.st13{fill:url(#SVGID_12_);stroke:#FFFFFF;stroke-width:1.172;}
	.st14{fill:url(#SVGID_13_);stroke:#FFFFFF;stroke-width:1.172;}
	.st15{fill:url(#SVGID_14_);stroke:#FFFFFF;stroke-width:1.172;}
	.st16{fill:url(#SVGID_15_);stroke:#FFFFFF;stroke-width:1.172;}
	.st17{fill:url(#SVGID_16_);stroke:#FFFFFF;stroke-width:1.172;}
	.st18{fill:url(#SVGID_17_);stroke:#FFFFFF;stroke-width:1.172;}
	.st19{fill:url(#SVGID_18_);stroke:#FFFFFF;stroke-width:1.172;}
	.st20{fill:url(#SVGID_19_);stroke:#FFFFFF;stroke-width:1.172;}
	.st21{fill:url(#SVGID_20_);stroke:#FFFFFF;stroke-width:1.172;}
	.st22{fill:url(#SVGID_21_);stroke:#FFFFFF;stroke-width:1.172;}
	.st23{fill:url(#SVGID_22_);stroke:#FFFFFF;stroke-width:1.172;}
	.st24{fill:url(#SVGID_23_);stroke:#FFFFFF;stroke-width:1.172;}
	.st25{fill:url(#SVGID_24_);stroke:#FFFFFF;stroke-width:1.172;}
	.st26{fill:url(#SVGID_25_);stroke:#FFFFFF;stroke-width:1.172;}
	.st27{fill:url(#SVGID_26_);stroke:#FFFFFF;stroke-width:1.172;}
	.st28{fill:url(#SVGID_27_);stroke:#FFFFFF;stroke-width:1.172;}
	.st29{fill:url(#SVGID_28_);stroke:#FFFFFF;stroke-width:1.172;}
	.st30{fill:url(#SVGID_29_);stroke:#FFFFFF;stroke-width:1.172;}
	.st31{fill:url(#SVGID_30_);stroke:#FFFFFF;stroke-width:1.172;}
	.st32{fill:url(#SVGID_31_);stroke:#FFFFFF;stroke-width:1.172;}
	.st33{fill:url(#SVGID_32_);stroke:#FFFFFF;stroke-width:1.172;}
	.st34{fill:url(#SVGID_33_);stroke:#FFFFFF;stroke-width:1.172;}
	.st35{fill:url(#SVGID_34_);stroke:#FFFFFF;stroke-width:1.172;}
	.st36{fill:url(#SVGID_35_);stroke:#FFFFFF;stroke-width:1.172;}
	.st37{fill:url(#SVGID_36_);stroke:#FFFFFF;stroke-width:1.172;}
	.st38{fill:url(#SVGID_37_);stroke:#FFFFFF;stroke-width:1.172;}
	.st39{fill:url(#SVGID_38_);stroke:#FFFFFF;stroke-width:1.172;}
	.st40{fill:url(#SVGID_39_);stroke:#FFFFFF;stroke-width:1.172;}
	.st41{fill:url(#SVGID_40_);stroke:#FFFFFF;stroke-width:1.172;}
	.st42{fill:url(#SVGID_41_);stroke:#FFFFFF;stroke-width:1.172;}
	.st43{fill:url(#SVGID_42_);stroke:#FFFFFF;stroke-width:1.172;}
	.st44{fill:url(#SVGID_43_);stroke:#FFFFFF;stroke-width:1.172;}
	.st45{fill:url(#SVGID_44_);stroke:#FFFFFF;stroke-width:1.172;}
	.st46{fill:url(#SVGID_45_);stroke:#FFFFFF;stroke-width:1.172;}
	.st47{fill:url(#SVGID_46_);}
	.st48{fill:none;}
</style>
<symbol  id="World" viewBox="-52.2 -39.1 104.4 78.1">
	
		<radialGradient id="SVGID_1_" cx="-33.1846" cy="21.393" r="61.239" gradientTransform="matrix(1 0 0 1 1.700000e-02 0.113)" gradientUnits="userSpaceOnUse">
		<stop  offset="0" style="stop-color:#E0E0E0"/>
		<stop  offset="4.300000e-02" style="stop-color:#D7D7D7"/>
		<stop  offset="0.12" style="stop-color:#CACACA"/>
		<stop  offset="0.207" style="stop-color:#C1C1C1"/>
		<stop  offset="0.313" style="stop-color:#BBBBBB"/>
		<stop  offset="0.494" style="stop-color:#BABABA"/>
		<stop  offset="1" style="stop-color:#585858"/>
	</radialGradient>
	<path class="st0" d="M-18.2,12.7l-11.6,14.4c0,0-40.4-2-12.5-21.6s94.8-34.1,91-17.4c0,0,2.2-10.2-34-2c-39.7,9-66,25-55.7,29.7
		C-41.1,15.7-27.4,18.5-18.2,12.7z"/>
	<circle class="st1" cx="13.1" cy="0" r="39.1"/>
	<path class="st2" d="M50.1,0c0,20.4-16.5,36.9-36.9,36.9C-7.2,36.9-23.8,20.4-23.8,0s16.5-36.9,36.9-36.9c0,0,0,0,0,0
		C33.5-36.9,50.1-20.4,50.1,0z"/>
	<radialGradient id="SVGID_2_" cx="30.9324" cy="-19.895" r="60.366" gradientUnits="userSpaceOnUse">
		<stop  offset="0" style="stop-color:#E0E0E0"/>
		<stop  offset="4.300000e-02" style="stop-color:#D7D7D7"/>
		<stop  offset="0.12" style="stop-color:#CACACA"/>
		<stop  offset="0.207" style="stop-color:#C1C1C1"/>
		<stop  offset="0.313" style="stop-color:#BBBBBB"/>
		<stop  offset="0.494" style="stop-color:#BABABA"/>
		<stop  offset="1" style="stop-color:#585858"/>
	</radialGradient>
	<path class="st3" d="M-13.9,0h-7.8c0,5.1,1.1,10.1,3.2,14.7c2.2-0.2,4.4-0.4,6.7-0.5C-13.2,9.6-13.9,4.8-13.9,0z"/>
	<radialGradient id="SVGID_3_" cx="30.9324" cy="-19.895" r="60.368" gradientUnits="userSpaceOnUse">
		<stop  offset="0" style="stop-color:#E0E0E0"/>
		<stop  offset="4.300000e-02" style="stop-color:#D7D7D7"/>
		<stop  offset="0.12" style="stop-color:#CACACA"/>
		<stop  offset="0.207" style="stop-color:#C1C1C1"/>
		<stop  offset="0.313" style="stop-color:#BBBBBB"/>
		<stop  offset="0.494" style="stop-color:#BABABA"/>
		<stop  offset="1" style="stop-color:#585858"/>
	</radialGradient>
	<path class="st4" d="M-11.8,14.1c-2.3,0.2-4.5,0.3-6.7,0.5c2.4,5.2,6.1,9.7,10.7,13.2c1-0.1,2-0.3,3.1-0.4
		C-7.9,23.5-10.3,19-11.8,14.1z"/>
	<radialGradient id="SVGID_4_" cx="30.9334" cy="-19.898" r="60.368" gradientUnits="userSpaceOnUse">
		<stop  offset="0" style="stop-color:#E0E0E0"/>
		<stop  offset="4.300000e-02" style="stop-color:#D7D7D7"/>
		<stop  offset="0.12" style="stop-color:#CACACA"/>
		<stop  offset="0.207" style="stop-color:#C1C1C1"/>
		<stop  offset="0.313" style="stop-color:#BBBBBB"/>
		<stop  offset="0.494" style="stop-color:#BABABA"/>
		<stop  offset="1" style="stop-color:#585858"/>
	</radialGradient>
	<path class="st5" d="M1-32.6c-3.1,1.2-6.1,2.8-8.8,4.8c1,0.1,2,0.3,3.1,0.4C-3-29.4-1.1-31.2,1-32.6z"/>
	<radialGradient id="SVGID_5_" cx="30.9344" cy="-19.895" r="60.37" gradientUnits="userSpaceOnUse">
		<stop  offset="0" style="stop-color:#E0E0E0"/>
		<stop  offset="4.300000e-02" style="stop-color:#D7D7D7"/>
		<stop  offset="0.12" style="stop-color:#CACACA"/>
		<stop  offset="0.207" style="stop-color:#C1C1C1"/>
		<stop  offset="0.313" style="stop-color:#BBBBBB"/>
		<stop  offset="0.494" style="stop-color:#BABABA"/>
		<stop  offset="1" style="stop-color:#585858"/>
	</radialGradient>
	<path class="st6" d="M-4.7,27.4c-1,0.1-2.1,0.3-3.1,0.4c2.7,2,5.6,3.6,8.8,4.8C-1.1,31.2-3,29.4-4.7,27.4z"/>
	<radialGradient id="SVGID_6_" cx="30.9324" cy="-19.895" r="60.367" gradientUnits="userSpaceOnUse">
		<stop  offset="0" style="stop-color:#E0E0E0"/>
		<stop  offset="4.300000e-02" style="stop-color:#D7D7D7"/>
		<stop  offset="0.12" style="stop-color:#CACACA"/>
		<stop  offset="0.207" style="stop-color:#C1C1C1"/>
		<stop  offset="0.313" style="stop-color:#BBBBBB"/>
		<stop  offset="0.494" style="stop-color:#BABABA"/>
		<stop  offset="1" style="stop-color:#585858"/>
	</radialGradient>
	<path class="st7" d="M-11.8-14.1c-2.3-0.2-4.5-0.3-6.7-0.5c-2.1,4.6-3.2,9.6-3.2,14.7h7.8C-13.9-4.8-13.2-9.6-11.8-14.1z"/>
	<radialGradient id="SVGID_7_" cx="30.9334" cy="-19.896" r="60.369" gradientUnits="userSpaceOnUse">
		<stop  offset="0" style="stop-color:#E0E0E0"/>
		<stop  offset="4.300000e-02" style="stop-color:#D7D7D7"/>
		<stop  offset="0.12" style="stop-color:#CACACA"/>
		<stop  offset="0.207" style="stop-color:#C1C1C1"/>
		<stop  offset="0.313" style="stop-color:#BBBBBB"/>
		<stop  offset="0.494" style="stop-color:#BABABA"/>
		<stop  offset="1" style="stop-color:#585858"/>
	</radialGradient>
	<path class="st8" d="M-4.7-27.4c-1-0.1-2.1-0.3-3.1-0.4c-4.6,3.4-8.2,8-10.7,13.2c2.2,0.2,4.4,0.4,6.7,0.5
		C-10.3-19-7.9-23.5-4.7-27.4z"/>
	<radialGradient id="SVGID_8_" cx="30.9324" cy="-19.896" r="60.368" gradientUnits="userSpaceOnUse">
		<stop  offset="0" style="stop-color:#E0E0E0"/>
		<stop  offset="4.300000e-02" style="stop-color:#D7D7D7"/>
		<stop  offset="0.12" style="stop-color:#CACACA"/>
		<stop  offset="0.207" style="stop-color:#C1C1C1"/>
		<stop  offset="0.313" style="stop-color:#BBBBBB"/>
		<stop  offset="0.494" style="stop-color:#BABABA"/>
		<stop  offset="1" style="stop-color:#585858"/>
	</radialGradient>
	<path class="st9" d="M38.1-14.1c2.3-0.2,4.5-0.3,6.7-0.5c-2.4-5.2-6.1-9.7-10.7-13.2c-1,0.1-2,0.3-3.1,0.4
		C34.2-23.5,36.6-19,38.1-14.1z"/>
	<radialGradient id="SVGID_9_" cx="30.9334" cy="-19.898" r="60.372" gradientUnits="userSpaceOnUse">
		<stop  offset="0" style="stop-color:#E0E0E0"/>
		<stop  offset="4.300000e-02" style="stop-color:#D7D7D7"/>
		<stop  offset="0.12" style="stop-color:#CACACA"/>
		<stop  offset="0.207" style="stop-color:#C1C1C1"/>
		<stop  offset="0.313" style="stop-color:#BBBBBB"/>
		<stop  offset="0.494" style="stop-color:#BABABA"/>
		<stop  offset="1" style="stop-color:#585858"/>
	</radialGradient>
	<path class="st10" d="M25.3,32.6c3.1-1.2,6.1-2.8,8.8-4.8c-1-0.1-2-0.3-3.1-0.4C29.3,29.4,27.4,31.2,25.3,32.6z"/>
	<radialGradient id="SVGID_10_" cx="30.9324" cy="-19.895" r="60.366" gradientUnits="userSpaceOnUse">
		<stop  offset="0" style="stop-color:#E0E0E0"/>
		<stop  offset="4.300000e-02" style="stop-color:#D7D7D7"/>
		<stop  offset="0.12" style="stop-color:#CACACA"/>
		<stop  offset="0.207" style="stop-color:#C1C1C1"/>
		<stop  offset="0.313" style="stop-color:#BBBBBB"/>
		<stop  offset="0.494" style="stop-color:#BABABA"/>
		<stop  offset="1" style="stop-color:#585858"/>
	</radialGradient>
	<path class="st11" d="M31,27.4c1,0.1,2.1,0.3,3.1,0.4c4.6-3.4,8.2-8,10.7-13.2c-2.2-0.2-4.4-0.4-6.7-0.5C36.6,19,34.2,23.5,31,27.4
		z"/>
	<radialGradient id="SVGID_11_" cx="30.9324" cy="-19.895" r="60.367" gradientUnits="userSpaceOnUse">
		<stop  offset="0" style="stop-color:#E0E0E0"/>
		<stop  offset="4.300000e-02" style="stop-color:#D7D7D7"/>
		<stop  offset="0.12" style="stop-color:#CACACA"/>
		<stop  offset="0.207" style="stop-color:#C1C1C1"/>
		<stop  offset="0.313" style="stop-color:#BBBBBB"/>
		<stop  offset="0.494" style="stop-color:#BABABA"/>
		<stop  offset="1" style="stop-color:#585858"/>
	</radialGradient>
	<path class="st12" d="M40.2,0c0,4.8-0.7,9.6-2.1,14.1c2.3,0.2,4.5,0.3,6.7,0.5C46.9,10.1,48,5.1,48,0H40.2z"/>
	<radialGradient id="SVGID_12_" cx="30.9324" cy="-19.895" r="60.367" gradientUnits="userSpaceOnUse">
		<stop  offset="0" style="stop-color:#E0E0E0"/>
		<stop  offset="4.300000e-02" style="stop-color:#D7D7D7"/>
		<stop  offset="0.12" style="stop-color:#CACACA"/>
		<stop  offset="0.207" style="stop-color:#C1C1C1"/>
		<stop  offset="0.313" style="stop-color:#BBBBBB"/>
		<stop  offset="0.494" style="stop-color:#BABABA"/>
		<stop  offset="1" style="stop-color:#585858"/>
	</radialGradient>
	<path class="st13" d="M40.2,0H48c0-5.1-1.1-10.1-3.2-14.7c-2.2,0.2-4.4,0.4-6.7,0.5C39.5-9.6,40.2-4.8,40.2,0z"/>
	<radialGradient id="SVGID_13_" cx="30.9334" cy="-19.898" r="60.36" gradientUnits="userSpaceOnUse">
		<stop  offset="0" style="stop-color:#E0E0E0"/>
		<stop  offset="4.300000e-02" style="stop-color:#D7D7D7"/>
		<stop  offset="0.12" style="stop-color:#CACACA"/>
		<stop  offset="0.207" style="stop-color:#C1C1C1"/>
		<stop  offset="0.313" style="stop-color:#BBBBBB"/>
		<stop  offset="0.494" style="stop-color:#BABABA"/>
		<stop  offset="1" style="stop-color:#585858"/>
	</radialGradient>
	<path class="st14" d="M31-27.4c1-0.1,2.1-0.3,3.1-0.4c-2.7-2-5.6-3.6-8.8-4.8C27.4-31.2,29.3-29.4,31-27.4z"/>
	<radialGradient id="SVGID_14_" cx="30.9324" cy="-19.898" r="60.359" gradientUnits="userSpaceOnUse">
		<stop  offset="0" style="stop-color:#E0E0E0"/>
		<stop  offset="4.300000e-02" style="stop-color:#D7D7D7"/>
		<stop  offset="0.12" style="stop-color:#CACACA"/>
		<stop  offset="0.207" style="stop-color:#C1C1C1"/>
		<stop  offset="0.313" style="stop-color:#BBBBBB"/>
		<stop  offset="0.494" style="stop-color:#BABABA"/>
		<stop  offset="1" style="stop-color:#585858"/>
	</radialGradient>
	<path class="st15" d="M17.8-34.5c2.5,0.3,5,1,7.4,1.9"/>
	<radialGradient id="SVGID_15_" cx="30.9324" cy="-19.898" r="60.365" gradientUnits="userSpaceOnUse">
		<stop  offset="0" style="stop-color:#E0E0E0"/>
		<stop  offset="4.300000e-02" style="stop-color:#D7D7D7"/>
		<stop  offset="0.12" style="stop-color:#CACACA"/>
		<stop  offset="0.207" style="stop-color:#C1C1C1"/>
		<stop  offset="0.313" style="stop-color:#BBBBBB"/>
		<stop  offset="0.494" style="stop-color:#BABABA"/>
		<stop  offset="1" style="stop-color:#585858"/>
	</radialGradient>
	<path class="st16" d="M1-32.6c2.4-0.9,4.9-1.5,7.4-1.9"/>
	<radialGradient id="SVGID_16_" cx="30.9324" cy="-19.859" r="60.326" gradientUnits="userSpaceOnUse">
		<stop  offset="0" style="stop-color:#E0E0E0"/>
		<stop  offset="4.300000e-02" style="stop-color:#D7D7D7"/>
		<stop  offset="0.12" style="stop-color:#CACACA"/>
		<stop  offset="0.207" style="stop-color:#C1C1C1"/>
		<stop  offset="0.313" style="stop-color:#BBBBBB"/>
		<stop  offset="0.494" style="stop-color:#BABABA"/>
		<stop  offset="1" style="stop-color:#585858"/>
	</radialGradient>
	<path class="st17" d="M25.3,32.6c-2.4,0.9-4.9,1.5-7.4,1.9"/>
	<radialGradient id="SVGID_17_" cx="30.9324" cy="-19.86" r="60.333" gradientUnits="userSpaceOnUse">
		<stop  offset="0" style="stop-color:#E0E0E0"/>
		<stop  offset="4.300000e-02" style="stop-color:#D7D7D7"/>
		<stop  offset="0.12" style="stop-color:#CACACA"/>
		<stop  offset="0.207" style="stop-color:#C1C1C1"/>
		<stop  offset="0.313" style="stop-color:#BBBBBB"/>
		<stop  offset="0.494" style="stop-color:#BABABA"/>
		<stop  offset="1" style="stop-color:#585858"/>
	</radialGradient>
	<path class="st18" d="M8.5,34.5c-2.5-0.3-5-1-7.4-1.9"/>
	<radialGradient id="SVGID_18_" cx="30.9324" cy="-19.896" r="60.368" gradientUnits="userSpaceOnUse">
		<stop  offset="0" style="stop-color:#E0E0E0"/>
		<stop  offset="4.300000e-02" style="stop-color:#D7D7D7"/>
		<stop  offset="0.12" style="stop-color:#CACACA"/>
		<stop  offset="0.207" style="stop-color:#C1C1C1"/>
		<stop  offset="0.313" style="stop-color:#BBBBBB"/>
		<stop  offset="0.494" style="stop-color:#BABABA"/>
		<stop  offset="1" style="stop-color:#585858"/>
	</radialGradient>
	<path class="st19" d="M-1.1,0h-12.7c0,4.8,0.7,9.6,2.1,14.1c3.8-0.3,7.7-0.5,11.7-0.6C-0.8,9-1.1,4.5-1.1,0z"/>
	<radialGradient id="SVGID_19_" cx="30.9334" cy="-19.893" r="60.366" gradientUnits="userSpaceOnUse">
		<stop  offset="0" style="stop-color:#E0E0E0"/>
		<stop  offset="4.300000e-02" style="stop-color:#D7D7D7"/>
		<stop  offset="0.12" style="stop-color:#CACACA"/>
		<stop  offset="0.207" style="stop-color:#C1C1C1"/>
		<stop  offset="0.313" style="stop-color:#BBBBBB"/>
		<stop  offset="0.494" style="stop-color:#BABABA"/>
		<stop  offset="1" style="stop-color:#585858"/>
	</radialGradient>
	<path class="st20" d="M-11.8,14.1c1.5,4.9,3.9,9.4,7.1,13.3c2.6-0.3,5.3-0.6,8.1-0.7C1.7,22.4,0.5,18-0.1,13.5
		C-4.1,13.7-8,13.9-11.8,14.1z"/>
	<radialGradient id="SVGID_20_" cx="30.9324" cy="-19.896" r="60.369" gradientUnits="userSpaceOnUse">
		<stop  offset="0" style="stop-color:#E0E0E0"/>
		<stop  offset="4.300000e-02" style="stop-color:#D7D7D7"/>
		<stop  offset="0.12" style="stop-color:#CACACA"/>
		<stop  offset="0.207" style="stop-color:#C1C1C1"/>
		<stop  offset="0.313" style="stop-color:#BBBBBB"/>
		<stop  offset="0.494" style="stop-color:#BABABA"/>
		<stop  offset="1" style="stop-color:#585858"/>
	</radialGradient>
	<path class="st21" d="M26.4,13.5c4,0.1,7.9,0.4,11.7,0.6c1.4-4.6,2.1-9.3,2.1-14.1H27.4C27.4,4.5,27.1,9,26.4,13.5z"/>
	<radialGradient id="SVGID_21_" cx="30.9324" cy="-19.897" r="60.366" gradientUnits="userSpaceOnUse">
		<stop  offset="0" style="stop-color:#E0E0E0"/>
		<stop  offset="4.300000e-02" style="stop-color:#D7D7D7"/>
		<stop  offset="0.12" style="stop-color:#CACACA"/>
		<stop  offset="0.207" style="stop-color:#C1C1C1"/>
		<stop  offset="0.313" style="stop-color:#BBBBBB"/>
		<stop  offset="0.494" style="stop-color:#BABABA"/>
		<stop  offset="1" style="stop-color:#585858"/>
	</radialGradient>
	<path class="st22" d="M-4.7-27.4c2.6,0.3,5.3,0.6,8.1,0.7c1.1-2.9,2.8-5.6,5-7.8c-2.5,0.3-5,1-7.4,1.9C-1.1-31.2-3-29.4-4.7-27.4z"
		/>
	<radialGradient id="SVGID_22_" cx="30.9334" cy="-19.896" r="60.371" gradientUnits="userSpaceOnUse">
		<stop  offset="0" style="stop-color:#E0E0E0"/>
		<stop  offset="4.300000e-02" style="stop-color:#D7D7D7"/>
		<stop  offset="0.12" style="stop-color:#CACACA"/>
		<stop  offset="0.207" style="stop-color:#C1C1C1"/>
		<stop  offset="0.313" style="stop-color:#BBBBBB"/>
		<stop  offset="0.494" style="stop-color:#BABABA"/>
		<stop  offset="1" style="stop-color:#585858"/>
	</radialGradient>
	<path class="st23" d="M38.1-14.1c-1.5-4.9-3.9-9.4-7.1-13.3c-2.6,0.3-5.3,0.6-8.1,0.7c1.7,4.2,2.9,8.6,3.5,13.2
		C30.4-13.7,34.3-13.9,38.1-14.1z"/>
	<radialGradient id="SVGID_23_" cx="30.9324" cy="-19.896" r="60.367" gradientUnits="userSpaceOnUse">
		<stop  offset="0" style="stop-color:#E0E0E0"/>
		<stop  offset="4.300000e-02" style="stop-color:#D7D7D7"/>
		<stop  offset="0.12" style="stop-color:#CACACA"/>
		<stop  offset="0.207" style="stop-color:#C1C1C1"/>
		<stop  offset="0.313" style="stop-color:#BBBBBB"/>
		<stop  offset="0.494" style="stop-color:#BABABA"/>
		<stop  offset="1" style="stop-color:#585858"/>
	</radialGradient>
	<path class="st24" d="M-0.1-13.5c-4-0.1-7.9-0.4-11.7-0.6c-1.4,4.6-2.1,9.3-2.1,14.1h12.7C-1.1-4.5-0.8-9-0.1-13.5z"/>
	<radialGradient id="SVGID_24_" cx="30.9334" cy="-19.896" r="60.37" gradientUnits="userSpaceOnUse">
		<stop  offset="0" style="stop-color:#E0E0E0"/>
		<stop  offset="4.300000e-02" style="stop-color:#D7D7D7"/>
		<stop  offset="0.12" style="stop-color:#CACACA"/>
		<stop  offset="0.207" style="stop-color:#C1C1C1"/>
		<stop  offset="0.313" style="stop-color:#BBBBBB"/>
		<stop  offset="0.494" style="stop-color:#BABABA"/>
		<stop  offset="1" style="stop-color:#585858"/>
	</radialGradient>
	<path class="st25" d="M3.4-26.7c-2.8-0.2-5.5-0.4-8.1-0.7c-3.2,3.9-5.6,8.4-7.1,13.3c3.8,0.3,7.7,0.5,11.7,0.6
		C0.5-18,1.7-22.4,3.4-26.7z"/>
	<radialGradient id="SVGID_25_" cx="30.9334" cy="-19.893" r="60.365" gradientUnits="userSpaceOnUse">
		<stop  offset="0" style="stop-color:#E0E0E0"/>
		<stop  offset="4.300000e-02" style="stop-color:#D7D7D7"/>
		<stop  offset="0.12" style="stop-color:#CACACA"/>
		<stop  offset="0.207" style="stop-color:#C1C1C1"/>
		<stop  offset="0.313" style="stop-color:#BBBBBB"/>
		<stop  offset="0.494" style="stop-color:#BABABA"/>
		<stop  offset="1" style="stop-color:#585858"/>
	</radialGradient>
	<path class="st26" d="M22.9,26.7c2.8,0.2,5.5,0.4,8.1,0.7c3.2-3.9,5.6-8.4,7.1-13.3c-3.8-0.3-7.7-0.5-11.7-0.6
		C25.8,18,24.6,22.4,22.9,26.7z"/>
	<radialGradient id="SVGID_26_" cx="30.9334" cy="-19.897" r="60.36" gradientUnits="userSpaceOnUse">
		<stop  offset="0" style="stop-color:#E0E0E0"/>
		<stop  offset="4.300000e-02" style="stop-color:#D7D7D7"/>
		<stop  offset="0.12" style="stop-color:#CACACA"/>
		<stop  offset="0.207" style="stop-color:#C1C1C1"/>
		<stop  offset="0.313" style="stop-color:#BBBBBB"/>
		<stop  offset="0.494" style="stop-color:#BABABA"/>
		<stop  offset="1" style="stop-color:#585858"/>
	</radialGradient>
	<path class="st27" d="M22.9-26.7c2.8-0.2,5.5-0.4,8.1-0.7c-1.7-2-3.6-3.7-5.7-5.2c-2.4-0.9-4.9-1.5-7.4-1.9
		C20.1-32.3,21.8-29.6,22.9-26.7z"/>
	<radialGradient id="SVGID_27_" cx="30.9344" cy="-19.888" r="60.36" gradientUnits="userSpaceOnUse">
		<stop  offset="0" style="stop-color:#E0E0E0"/>
		<stop  offset="4.300000e-02" style="stop-color:#D7D7D7"/>
		<stop  offset="0.12" style="stop-color:#CACACA"/>
		<stop  offset="0.207" style="stop-color:#C1C1C1"/>
		<stop  offset="0.313" style="stop-color:#BBBBBB"/>
		<stop  offset="0.494" style="stop-color:#BABABA"/>
		<stop  offset="1" style="stop-color:#585858"/>
	</radialGradient>
	<path class="st28" d="M3.4,26.7c-2.8,0.2-5.5,0.4-8.1,0.7c1.7,2,3.6,3.7,5.7,5.2c2.4,0.9,4.9,1.5,7.4,1.9
		C6.2,32.3,4.5,29.6,3.4,26.7z"/>
	<radialGradient id="SVGID_28_" cx="30.9324" cy="-19.896" r="60.369" gradientUnits="userSpaceOnUse">
		<stop  offset="0" style="stop-color:#E0E0E0"/>
		<stop  offset="4.300000e-02" style="stop-color:#D7D7D7"/>
		<stop  offset="0.12" style="stop-color:#CACACA"/>
		<stop  offset="0.207" style="stop-color:#C1C1C1"/>
		<stop  offset="0.313" style="stop-color:#BBBBBB"/>
		<stop  offset="0.494" style="stop-color:#BABABA"/>
		<stop  offset="1" style="stop-color:#585858"/>
	</radialGradient>
	<path class="st29" d="M26.4-13.5c0.7,4.5,1,9,1,13.5h12.7c0-4.8-0.7-9.6-2.1-14.1C34.3-13.9,30.4-13.7,26.4-13.5z"/>
	<radialGradient id="SVGID_29_" cx="30.9334" cy="-19.89" r="60.36" gradientUnits="userSpaceOnUse">
		<stop  offset="0" style="stop-color:#E0E0E0"/>
		<stop  offset="4.300000e-02" style="stop-color:#D7D7D7"/>
		<stop  offset="0.12" style="stop-color:#CACACA"/>
		<stop  offset="0.207" style="stop-color:#C1C1C1"/>
		<stop  offset="0.313" style="stop-color:#BBBBBB"/>
		<stop  offset="0.494" style="stop-color:#BABABA"/>
		<stop  offset="1" style="stop-color:#585858"/>
	</radialGradient>
	<path class="st30" d="M31,27.4c-2.6-0.3-5.3-0.6-8.1-0.7c-1.1,2.9-2.8,5.6-5,7.8c2.5-0.3,5-1,7.4-1.9C27.4,31.2,29.3,29.4,31,27.4z
		"/>
	<radialGradient id="SVGID_30_" cx="30.9334" cy="-19.888" r="60.383" gradientUnits="userSpaceOnUse">
		<stop  offset="0" style="stop-color:#E0E0E0"/>
		<stop  offset="4.300000e-02" style="stop-color:#D7D7D7"/>
		<stop  offset="0.12" style="stop-color:#CACACA"/>
		<stop  offset="0.207" style="stop-color:#C1C1C1"/>
		<stop  offset="0.313" style="stop-color:#BBBBBB"/>
		<stop  offset="0.494" style="stop-color:#BABABA"/>
		<stop  offset="1" style="stop-color:#585858"/>
	</radialGradient>
	<path class="st31" d="M8.5-34.5c1.6-0.2,3.1-0.3,4.7-0.3"/>
	<radialGradient id="SVGID_31_" cx="30.9314" cy="-19.888" r="60.384" gradientUnits="userSpaceOnUse">
		<stop  offset="0" style="stop-color:#E0E0E0"/>
		<stop  offset="4.300000e-02" style="stop-color:#D7D7D7"/>
		<stop  offset="0.12" style="stop-color:#CACACA"/>
		<stop  offset="0.207" style="stop-color:#C1C1C1"/>
		<stop  offset="0.313" style="stop-color:#BBBBBB"/>
		<stop  offset="0.494" style="stop-color:#BABABA"/>
		<stop  offset="1" style="stop-color:#585858"/>
	</radialGradient>
	<path class="st32" d="M13.1-34.8c1.6,0,3.1,0.1,4.7,0.3"/>
	<radialGradient id="SVGID_32_" cx="30.9334" cy="-19.997" r="60.467" gradientUnits="userSpaceOnUse">
		<stop  offset="0" style="stop-color:#E0E0E0"/>
		<stop  offset="4.300000e-02" style="stop-color:#D7D7D7"/>
		<stop  offset="0.12" style="stop-color:#CACACA"/>
		<stop  offset="0.207" style="stop-color:#C1C1C1"/>
		<stop  offset="0.313" style="stop-color:#BBBBBB"/>
		<stop  offset="0.494" style="stop-color:#BABABA"/>
		<stop  offset="1" style="stop-color:#585858"/>
	</radialGradient>
	<path class="st33" d="M13.1,34.8c-1.6,0-3.1-0.1-4.7-0.3"/>
	<radialGradient id="SVGID_33_" cx="30.9314" cy="-19.925" r="60.398" gradientUnits="userSpaceOnUse">
		<stop  offset="0" style="stop-color:#E0E0E0"/>
		<stop  offset="4.300000e-02" style="stop-color:#D7D7D7"/>
		<stop  offset="0.12" style="stop-color:#CACACA"/>
		<stop  offset="0.207" style="stop-color:#C1C1C1"/>
		<stop  offset="0.313" style="stop-color:#BBBBBB"/>
		<stop  offset="0.494" style="stop-color:#BABABA"/>
		<stop  offset="1" style="stop-color:#585858"/>
	</radialGradient>
	<path class="st34" d="M17.8,34.5c-1.6,0.2-3.1,0.3-4.7,0.3"/>
	<radialGradient id="SVGID_34_" cx="30.9324" cy="-19.898" r="60.372" gradientUnits="userSpaceOnUse">
		<stop  offset="0" style="stop-color:#E0E0E0"/>
		<stop  offset="4.300000e-02" style="stop-color:#D7D7D7"/>
		<stop  offset="0.12" style="stop-color:#CACACA"/>
		<stop  offset="0.207" style="stop-color:#C1C1C1"/>
		<stop  offset="0.313" style="stop-color:#BBBBBB"/>
		<stop  offset="0.494" style="stop-color:#BABABA"/>
		<stop  offset="1" style="stop-color:#585858"/>
	</radialGradient>
	<path class="st35" d="M-1.1,0c0,4.5,0.3,9,1,13.5c4.3-0.2,8.7-0.2,13.3-0.2V0H-1.1z"/>
	<radialGradient id="SVGID_35_" cx="30.9314" cy="-19.898" r="60.374" gradientUnits="userSpaceOnUse">
		<stop  offset="0" style="stop-color:#E0E0E0"/>
		<stop  offset="4.300000e-02" style="stop-color:#D7D7D7"/>
		<stop  offset="0.12" style="stop-color:#CACACA"/>
		<stop  offset="0.207" style="stop-color:#C1C1C1"/>
		<stop  offset="0.313" style="stop-color:#BBBBBB"/>
		<stop  offset="0.494" style="stop-color:#BABABA"/>
		<stop  offset="1" style="stop-color:#585858"/>
	</radialGradient>
	<path class="st36" d="M13.1,13.3L13.1,13.3c4.5,0,8.9,0.1,13.3,0.2c0.7-4.5,1-9,1-13.5H13.1V13.3z"/>
	<radialGradient id="SVGID_36_" cx="30.9314" cy="-19.896" r="60.366" gradientUnits="userSpaceOnUse">
		<stop  offset="0" style="stop-color:#E0E0E0"/>
		<stop  offset="4.300000e-02" style="stop-color:#D7D7D7"/>
		<stop  offset="0.12" style="stop-color:#CACACA"/>
		<stop  offset="0.207" style="stop-color:#C1C1C1"/>
		<stop  offset="0.313" style="stop-color:#BBBBBB"/>
		<stop  offset="0.494" style="stop-color:#BABABA"/>
		<stop  offset="1" style="stop-color:#585858"/>
	</radialGradient>
	<path class="st37" d="M13.1,0h14.3c0-4.5-0.3-9-1-13.5c-4.3,0.2-8.7,0.2-13.3,0.2L13.1,0z"/>
	<radialGradient id="SVGID_37_" cx="30.9334" cy="-19.897" r="60.37" gradientUnits="userSpaceOnUse">
		<stop  offset="0" style="stop-color:#E0E0E0"/>
		<stop  offset="4.300000e-02" style="stop-color:#D7D7D7"/>
		<stop  offset="0.12" style="stop-color:#CACACA"/>
		<stop  offset="0.207" style="stop-color:#C1C1C1"/>
		<stop  offset="0.313" style="stop-color:#BBBBBB"/>
		<stop  offset="0.494" style="stop-color:#BABABA"/>
		<stop  offset="1" style="stop-color:#585858"/>
	</radialGradient>
	<path class="st38" d="M13.1,13.3L13.1,13.3v13.1l0,0c3.3,0,6.6,0.1,9.7,0.3c1.7-4.2,2.9-8.6,3.5-13.2
		C22.1,13.4,17.7,13.3,13.1,13.3z"/>
	<radialGradient id="SVGID_38_" cx="30.9324" cy="-19.896" r="60.367" gradientUnits="userSpaceOnUse">
		<stop  offset="0" style="stop-color:#E0E0E0"/>
		<stop  offset="4.300000e-02" style="stop-color:#D7D7D7"/>
		<stop  offset="0.12" style="stop-color:#CACACA"/>
		<stop  offset="0.207" style="stop-color:#C1C1C1"/>
		<stop  offset="0.313" style="stop-color:#BBBBBB"/>
		<stop  offset="0.494" style="stop-color:#BABABA"/>
		<stop  offset="1" style="stop-color:#585858"/>
	</radialGradient>
	<path class="st39" d="M13.1-13.3L13.1-13.3c-4.5,0-8.9-0.1-13.3-0.2c-0.7,4.5-1,9-1,13.5h14.3V-13.3z"/>
	<radialGradient id="SVGID_39_" cx="30.9334" cy="-19.897" r="60.373" gradientUnits="userSpaceOnUse">
		<stop  offset="0" style="stop-color:#E0E0E0"/>
		<stop  offset="4.300000e-02" style="stop-color:#D7D7D7"/>
		<stop  offset="0.12" style="stop-color:#CACACA"/>
		<stop  offset="0.207" style="stop-color:#C1C1C1"/>
		<stop  offset="0.313" style="stop-color:#BBBBBB"/>
		<stop  offset="0.494" style="stop-color:#BABABA"/>
		<stop  offset="1" style="stop-color:#585858"/>
	</radialGradient>
	<path class="st40" d="M13.1-13.3c4.5,0,8.9-0.1,13.3-0.2c-0.6-4.5-1.8-8.9-3.5-13.2c-3.2,0.2-6.4,0.3-9.7,0.3L13.1-13.3z"/>
	<radialGradient id="SVGID_40_" cx="30.9334" cy="-19.898" r="60.368" gradientUnits="userSpaceOnUse">
		<stop  offset="0" style="stop-color:#E0E0E0"/>
		<stop  offset="4.300000e-02" style="stop-color:#D7D7D7"/>
		<stop  offset="0.12" style="stop-color:#CACACA"/>
		<stop  offset="0.207" style="stop-color:#C1C1C1"/>
		<stop  offset="0.313" style="stop-color:#BBBBBB"/>
		<stop  offset="0.494" style="stop-color:#BABABA"/>
		<stop  offset="1" style="stop-color:#585858"/>
	</radialGradient>
	<path class="st41" d="M13.1,26.4v8.4c1.6,0,3.1-0.1,4.7-0.3c2.2-2.2,3.9-4.9,5-7.8C19.7,26.5,16.5,26.4,13.1,26.4L13.1,26.4z"/>
	<radialGradient id="SVGID_41_" cx="30.9344" cy="-19.897" r="60.37" gradientUnits="userSpaceOnUse">
		<stop  offset="0" style="stop-color:#E0E0E0"/>
		<stop  offset="4.300000e-02" style="stop-color:#D7D7D7"/>
		<stop  offset="0.12" style="stop-color:#CACACA"/>
		<stop  offset="0.207" style="stop-color:#C1C1C1"/>
		<stop  offset="0.313" style="stop-color:#BBBBBB"/>
		<stop  offset="0.494" style="stop-color:#BABABA"/>
		<stop  offset="1" style="stop-color:#585858"/>
	</radialGradient>
	<path class="st42" d="M13.1,13.3c-4.5,0-8.9,0.1-13.3,0.2c0.6,4.5,1.8,8.9,3.5,13.2c3.2-0.2,6.4-0.3,9.7-0.3V13.3z"/>
	<radialGradient id="SVGID_42_" cx="30.9334" cy="-19.898" r="60.368" gradientUnits="userSpaceOnUse">
		<stop  offset="0" style="stop-color:#E0E0E0"/>
		<stop  offset="4.300000e-02" style="stop-color:#D7D7D7"/>
		<stop  offset="0.12" style="stop-color:#CACACA"/>
		<stop  offset="0.207" style="stop-color:#C1C1C1"/>
		<stop  offset="0.313" style="stop-color:#BBBBBB"/>
		<stop  offset="0.494" style="stop-color:#BABABA"/>
		<stop  offset="1" style="stop-color:#585858"/>
	</radialGradient>
	<path class="st43" d="M3.4,26.7c1.1,2.9,2.8,5.6,5,7.8c1.6,0.2,3.1,0.3,4.7,0.3v-8.4C9.8,26.4,6.6,26.5,3.4,26.7z"/>
	<radialGradient id="SVGID_43_" cx="30.9344" cy="-19.897" r="60.372" gradientUnits="userSpaceOnUse">
		<stop  offset="0" style="stop-color:#E0E0E0"/>
		<stop  offset="4.300000e-02" style="stop-color:#D7D7D7"/>
		<stop  offset="0.12" style="stop-color:#CACACA"/>
		<stop  offset="0.207" style="stop-color:#C1C1C1"/>
		<stop  offset="0.313" style="stop-color:#BBBBBB"/>
		<stop  offset="0.494" style="stop-color:#BABABA"/>
		<stop  offset="1" style="stop-color:#585858"/>
	</radialGradient>
	<path class="st44" d="M13.1-13.3L13.1-13.3v-13.1l0,0c-3.3,0-6.6-0.1-9.7-0.3C1.7-22.4,0.5-18-0.1-13.5
		C4.2-13.4,8.6-13.3,13.1-13.3z"/>
	<radialGradient id="SVGID_44_" cx="30.9334" cy="-19.896" r="60.368" gradientUnits="userSpaceOnUse">
		<stop  offset="0" style="stop-color:#E0E0E0"/>
		<stop  offset="4.300000e-02" style="stop-color:#D7D7D7"/>
		<stop  offset="0.12" style="stop-color:#CACACA"/>
		<stop  offset="0.207" style="stop-color:#C1C1C1"/>
		<stop  offset="0.313" style="stop-color:#BBBBBB"/>
		<stop  offset="0.494" style="stop-color:#BABABA"/>
		<stop  offset="1" style="stop-color:#585858"/>
	</radialGradient>
	<path class="st45" d="M13.1-26.4v-8.4c-1.6,0-3.1,0.1-4.7,0.3c-2.2,2.2-4,4.9-5,7.8C6.6-26.5,9.8-26.4,13.1-26.4L13.1-26.4z"/>
	<radialGradient id="SVGID_45_" cx="30.9334" cy="-19.896" r="60.366" gradientUnits="userSpaceOnUse">
		<stop  offset="0" style="stop-color:#E0E0E0"/>
		<stop  offset="4.300000e-02" style="stop-color:#D7D7D7"/>
		<stop  offset="0.12" style="stop-color:#CACACA"/>
		<stop  offset="0.207" style="stop-color:#C1C1C1"/>
		<stop  offset="0.313" style="stop-color:#BBBBBB"/>
		<stop  offset="0.494" style="stop-color:#BABABA"/>
		<stop  offset="1" style="stop-color:#585858"/>
	</radialGradient>
	<path class="st46" d="M22.9-26.7c-1.1-2.9-2.8-5.6-5-7.8c-1.6-0.2-3.1-0.3-4.7-0.3v8.4C16.5-26.4,19.7-26.5,22.9-26.7z"/>
	<path class="st2" d="M-12.6,12.1C-12.5,9.6-12-2.3-12-2.3L-15.8,3c0,0-5.2,7.3-6.2,8.7L-36,11.2l8.3,8.6l-10.6,14.9l16.5-8.9
		l8.2,8.5c0,0,0.5-11.4,0.6-13.2c1.6-0.9,15.9-8.5,15.9-8.5L-12.6,12.1z M-14.9,20l-0.4,9.8l-6.1-6.3L-32,29.2l6.8-9.6l-6.1-6.3
		l10.3,0.4l6.8-9.6l-0.4,9.8l10.3,0.4L-14.9,20z"/>
	<linearGradient id="SVGID_46_" gradientUnits="userSpaceOnUse" x1="-31.3206" y1="16.9895" x2="-10.8146" y2="16.9895">
		<stop  offset="0" style="stop-color:#E0E0E0"/>
		<stop  offset="4.300000e-02" style="stop-color:#D7D7D7"/>
		<stop  offset="0.12" style="stop-color:#CACACA"/>
		<stop  offset="0.207" style="stop-color:#C1C1C1"/>
		<stop  offset="0.313" style="stop-color:#BBBBBB"/>
		<stop  offset="0.494" style="stop-color:#BABABA"/>
		<stop  offset="1" style="stop-color:#585858"/>
	</linearGradient>
	<polygon class="st47" points="-14.6,14 -14.2,4.1 -21,13.7 -31.3,13.3 -25.2,19.6 -32,29.2 -21.4,23.5 -15.3,29.8 -14.9,20 
		-4.3,14.4 	"/>
</symbol>
<title>Asset 2</title>
<g id="Layer_2_1_">
	<g id="Layer_1-2">
		
			<use xlink:href="#World"  width="104.4" height="78.1" x="-52.2" y="-39.1" transform="matrix(0.386 0 0 0.384 30.1691 22.499)" style="overflow:visible;"/>
		<path class="st1" d="M70.6,13.6c0.8,0.4,1.5,1.1,1.9,1.9c0.5,0.8,0.7,1.7,0.7,2.7c0,0.9-0.2,1.9-0.7,2.7c-0.4,0.8-1.1,1.4-1.9,1.9
			c-0.8,0.5-1.7,0.7-2.7,0.7c-0.9,0-1.9-0.2-2.7-0.7c-0.8-0.4-1.4-1.1-1.9-1.8c-0.9-1.7-0.9-3.7,0-5.4c0.4-0.8,1.1-1.4,1.9-1.8
			C67,12.8,69,12.8,70.6,13.6L70.6,13.6z M66.4,15.6c-0.4,0.2-0.8,0.6-1,1.1c-0.3,0.5-0.4,1-0.4,1.6c0,0.6,0.1,1.1,0.4,1.6
			c0.2,0.4,0.6,0.8,1.1,1.1c0.5,0.3,1,0.4,1.5,0.4c0.5,0,1-0.1,1.5-0.4c0.4-0.2,0.8-0.6,1-1.1c0.3-0.5,0.4-1,0.4-1.6
			c0-0.6-0.1-1.1-0.4-1.6c-0.2-0.4-0.6-0.8-1-1.1c-0.5-0.3-1-0.4-1.5-0.4C67.4,15.2,66.9,15.3,66.4,15.6z M79.1,25.5v7.7h-2.4v-5.6
			H65.6v-2L79.1,25.5z M77.5,14.8v2.1h-6v-2.1L77.5,14.8z M77.5,19.5v2.1h-6v-2.1L77.5,19.5z M79.1,11.9v12.6h-2.4V11.9L79.1,11.9z"
			/>
		<path class="st1" d="M88.9,13.6V17c0,1.7-0.2,3.3-0.7,4.9c-0.4,1.5-1,2.9-1.9,4.1c-0.8,1.1-1.8,2.1-3,2.7l-1.5-2.1
			c1.1-0.5,2-1.3,2.7-2.3c0.8-1,1.4-2.2,1.8-3.4c0.4-1.3,0.6-2.6,0.6-3.9v-3.4H88.9z M89.3,13.6V17c0,1.3,0.2,2.6,0.6,3.8
			c0.4,1.2,0.9,2.3,1.7,3.3c0.7,0.9,1.6,1.7,2.6,2.2l-1.5,2c-1.2-0.6-2.1-1.5-2.9-2.6c-0.8-1.2-1.4-2.5-1.8-4
			c-0.4-1.5-0.6-3.1-0.6-4.7v-3.4H89.3z M97.8,11.9v21.3h-2.4V11.9L97.8,11.9z M100.9,20.2v2.2h-3.7v-2.2L100.9,20.2z"/>
		<path class="st1" d="M110.3,13.2v3.1h4.7v-3.1h2.4v10.3h-9.5V13.2H110.3z M122.9,25.7v7.5h-2.4v-5.4h-10.8v-2H122.9z M110.3,21.4
			h4.7v-3.2h-4.7V21.4z M122.9,11.9v12.8h-2.4V11.9L122.9,11.9z M125.7,17.2v2.1h-3.5v-2.1L125.7,17.2z"/>
		<path class="st1" d="M145,20.5v2.1h-18.1v-2.1H145z M142.7,24.2v5.2h-11.3v2.2H129v-4h11.3v-1.4H129v-1.9H142.7z M143.3,31v2H129
			v-2H143.3z M142.7,12.5v6.6h-13.5v-6.6H142.7z M131.5,14.5v2.6h8.8v-2.6H131.5z M137.1,22v3.1h-2.4V22H137.1z"/>
		<path class="st1" d="M153,22.5c2.1-0.1,4-0.3,5.8-0.5l0.2,1.8c-1.9,0.4-3.9,0.6-5.9,0.7c-2.1,0.1-4.2,0.2-6.5,0.2l-0.2-2.1
			C148.7,22.7,150.9,22.6,153,22.5z M156.3,13.4v2.1h-8.7v-2.1L156.3,13.4z M151.8,26.4v4.9h-2.4v-4.9H151.8z M163.1,30.7v2.1h-13.7
			v-2.1L163.1,30.7z M152.7,18.3v5.4h-2.4v-5.4H152.7z M157.7,13.4v1.2c0,1.1,0,2.1-0.1,3.1c-0.1,1.1-0.2,2.2-0.4,3.2l-2.3-0.3
			c0.2-1,0.3-2.1,0.4-3.1c0.1-0.9,0.1-1.9,0.1-2.9v-1.2H157.7z M162.5,11.8v16H160v-16L162.5,11.8z M165.1,18.6v2.1h-3.6v-2.1
			L165.1,18.6z"/>
		<rect class="st48" width="190" height="45"/>
	</g>
</g>
</svg>
