<svg xmlns="http://www.w3.org/2000/svg" xmlns:xlink="http://www.w3.org/1999/xlink" viewBox="0 0 190 45"><defs><style>.cls-1{fill:url(#radial-gradient);}.cls-2{fill:#7177a9;}.cls-3{fill:#fff;}.cls-10,.cls-11,.cls-12,.cls-13,.cls-14,.cls-15,.cls-16,.cls-17,.cls-18,.cls-19,.cls-20,.cls-21,.cls-22,.cls-23,.cls-24,.cls-25,.cls-26,.cls-27,.cls-28,.cls-29,.cls-30,.cls-31,.cls-32,.cls-33,.cls-34,.cls-35,.cls-36,.cls-37,.cls-38,.cls-39,.cls-4,.cls-40,.cls-41,.cls-42,.cls-43,.cls-44,.cls-45,.cls-46,.cls-5,.cls-6,.cls-7,.cls-8,.cls-9{stroke:#fff;stroke-width:1.172px;}.cls-4{fill:url(#radial-gradient-2);}.cls-5{fill:url(#radial-gradient-3);}.cls-6{fill:url(#radial-gradient-4);}.cls-7{fill:url(#radial-gradient-5);}.cls-8{fill:url(#radial-gradient-6);}.cls-9{fill:url(#radial-gradient-7);}.cls-10{fill:url(#radial-gradient-8);}.cls-11{fill:url(#radial-gradient-9);}.cls-12{fill:url(#radial-gradient-10);}.cls-13{fill:url(#radial-gradient-11);}.cls-14{fill:url(#radial-gradient-13);}.cls-15{fill:url(#radial-gradient-14);}.cls-16{fill:url(#radial-gradient-15);}.cls-17{fill:url(#radial-gradient-16);}.cls-18{fill:url(#radial-gradient-17);}.cls-19{fill:url(#radial-gradient-18);}.cls-20{fill:url(#radial-gradient-19);}.cls-21{fill:url(#radial-gradient-20);}.cls-22{fill:url(#radial-gradient-21);}.cls-23{fill:url(#radial-gradient-22);}.cls-24{fill:url(#radial-gradient-23);}.cls-25{fill:url(#radial-gradient-24);}.cls-26{fill:url(#radial-gradient-25);}.cls-27{fill:url(#radial-gradient-26);}.cls-28{fill:url(#radial-gradient-27);}.cls-29{fill:url(#radial-gradient-28);}.cls-30{fill:url(#radial-gradient-29);}.cls-31{fill:url(#radial-gradient-30);}.cls-32{fill:url(#radial-gradient-31);}.cls-33{fill:url(#radial-gradient-32);}.cls-34{fill:url(#radial-gradient-33);}.cls-35{fill:url(#radial-gradient-34);}.cls-36{fill:url(#radial-gradient-35);}.cls-37{fill:url(#radial-gradient-36);}.cls-38{fill:url(#radial-gradient-37);}.cls-39{fill:url(#radial-gradient-38);}.cls-40{fill:url(#radial-gradient-39);}.cls-41{fill:url(#radial-gradient-40);}.cls-42{fill:url(#radial-gradient-41);}.cls-43{fill:url(#radial-gradient-42);}.cls-44{fill:url(#radial-gradient-43);}.cls-45{fill:url(#radial-gradient-44);}.cls-46{fill:url(#radial-gradient-45);}.cls-47{fill:url(#linear-gradient);}.cls-48{fill:none;}</style><radialGradient id="radial-gradient" cx="19.024" cy="60.453" r="61.239" gradientTransform="translate(0.017 0.113)" gradientUnits="userSpaceOnUse"><stop offset="0" stop-color="#ffea5a"/><stop offset="0.043" stop-color="#fcdb5a"/><stop offset="0.12" stop-color="#f9c75a"/><stop offset="0.207" stop-color="#f6b95a"/><stop offset="0.313" stop-color="#f4b05a"/><stop offset="0.494" stop-color="#f4ae5a"/><stop offset="1" stop-color="#6938d2"/></radialGradient><radialGradient id="radial-gradient-2" cx="83.141" cy="19.165" r="60.366" xlink:href="#radial-gradient"/><radialGradient id="radial-gradient-3" cx="83.141" cy="19.165" r="60.368" xlink:href="#radial-gradient"/><radialGradient id="radial-gradient-4" cx="83.142" cy="19.162" r="60.368" xlink:href="#radial-gradient"/><radialGradient id="radial-gradient-5" cx="83.143" cy="19.165" r="60.37" xlink:href="#radial-gradient"/><radialGradient id="radial-gradient-6" cx="83.141" cy="19.165" r="60.367" xlink:href="#radial-gradient"/><radialGradient id="radial-gradient-7" cx="83.142" cy="19.164" r="60.369" xlink:href="#radial-gradient"/><radialGradient id="radial-gradient-8" cx="83.141" cy="19.164" r="60.368" xlink:href="#radial-gradient"/><radialGradient id="radial-gradient-9" cx="83.142" cy="19.162" r="60.372" xlink:href="#radial-gradient"/><radialGradient id="radial-gradient-10" cx="83.141" cy="19.165" r="60.366" xlink:href="#radial-gradient"/><radialGradient id="radial-gradient-11" cx="83.141" cy="19.165" r="60.367" xlink:href="#radial-gradient"/><radialGradient id="radial-gradient-13" cx="83.142" cy="19.162" r="60.36" xlink:href="#radial-gradient"/><radialGradient id="radial-gradient-14" cx="83.141" cy="19.162" r="60.359" xlink:href="#radial-gradient"/><radialGradient id="radial-gradient-15" cx="83.141" cy="19.162" r="60.365" xlink:href="#radial-gradient"/><radialGradient id="radial-gradient-16" cx="83.141" cy="19.201" r="60.326" xlink:href="#radial-gradient"/><radialGradient id="radial-gradient-17" cx="83.141" cy="19.2" r="60.333" xlink:href="#radial-gradient"/><radialGradient id="radial-gradient-18" cx="83.141" cy="19.164" r="60.368" xlink:href="#radial-gradient"/><radialGradient id="radial-gradient-19" cx="83.142" cy="19.167" r="60.366" xlink:href="#radial-gradient"/><radialGradient id="radial-gradient-20" cx="83.141" cy="19.164" r="60.369" xlink:href="#radial-gradient"/><radialGradient id="radial-gradient-21" cx="83.141" cy="19.163" r="60.366" xlink:href="#radial-gradient"/><radialGradient id="radial-gradient-22" cx="83.142" cy="19.164" r="60.371" xlink:href="#radial-gradient"/><radialGradient id="radial-gradient-23" cx="83.141" cy="19.164" r="60.367" xlink:href="#radial-gradient"/><radialGradient id="radial-gradient-24" cx="83.142" cy="19.164" r="60.37" xlink:href="#radial-gradient"/><radialGradient id="radial-gradient-25" cx="83.142" cy="19.167" r="60.365" xlink:href="#radial-gradient"/><radialGradient id="radial-gradient-26" cx="83.142" cy="19.163" r="60.36" xlink:href="#radial-gradient"/><radialGradient id="radial-gradient-27" cx="83.143" cy="19.172" r="60.36" xlink:href="#radial-gradient"/><radialGradient id="radial-gradient-28" cx="83.141" cy="19.164" r="60.369" xlink:href="#radial-gradient"/><radialGradient id="radial-gradient-29" cx="83.142" cy="19.17" r="60.36" xlink:href="#radial-gradient"/><radialGradient id="radial-gradient-30" cx="83.142" cy="19.172" r="60.383" xlink:href="#radial-gradient"/><radialGradient id="radial-gradient-31" cx="83.14" cy="19.172" r="60.384" xlink:href="#radial-gradient"/><radialGradient id="radial-gradient-32" cx="83.142" cy="19.063" r="60.467" xlink:href="#radial-gradient"/><radialGradient id="radial-gradient-33" cx="83.14" cy="19.135" r="60.398" xlink:href="#radial-gradient"/><radialGradient id="radial-gradient-34" cx="83.141" cy="19.162" r="60.372" xlink:href="#radial-gradient"/><radialGradient id="radial-gradient-35" cx="83.14" cy="19.162" r="60.374" xlink:href="#radial-gradient"/><radialGradient id="radial-gradient-36" cx="83.14" cy="19.164" r="60.366" xlink:href="#radial-gradient"/><radialGradient id="radial-gradient-37" cx="83.142" cy="19.163" r="60.37" xlink:href="#radial-gradient"/><radialGradient id="radial-gradient-38" cx="83.141" cy="19.164" r="60.367" xlink:href="#radial-gradient"/><radialGradient id="radial-gradient-39" cx="83.142" cy="19.163" r="60.373" xlink:href="#radial-gradient"/><radialGradient id="radial-gradient-40" cx="83.142" cy="19.162" r="60.368" xlink:href="#radial-gradient"/><radialGradient id="radial-gradient-41" cx="83.143" cy="19.163" r="60.37" xlink:href="#radial-gradient"/><radialGradient id="radial-gradient-42" cx="83.142" cy="19.162" r="60.368" xlink:href="#radial-gradient"/><radialGradient id="radial-gradient-43" cx="83.143" cy="19.163" r="60.372" xlink:href="#radial-gradient"/><radialGradient id="radial-gradient-44" cx="83.142" cy="19.164" r="60.368" xlink:href="#radial-gradient"/><radialGradient id="radial-gradient-45" cx="83.142" cy="19.164" r="60.366" xlink:href="#radial-gradient"/><linearGradient id="linear-gradient" x1="20.888" y1="56.049" x2="41.394" y2="56.049" gradientTransform="matrix(1, 0, 0, 1, 0, 0)" xlink:href="#radial-gradient"/><symbol id="World" data-name="World" viewBox="0 0 104.416 78.12"><path class="cls-1" d="M33.962,51.763,22.329,66.118S-18.1,64.14,9.849,44.507,104.641,10.416,100.8,27.06c0,0,2.248-10.183-34-2-39.691,8.962-66,25-55.671,29.691C11.129,54.751,24.786,57.525,33.962,51.763Z"/><circle class="cls-2" cx="65.355" cy="39.06" r="39.06"/><path class="cls-3" d="M102.282,39.06A36.927,36.927,0,1,1,65.355,2.135,36.926,36.926,0,0,1,102.282,39.06Z"/><path class="cls-4" d="M38.346,39.06h-7.8a34.673,34.673,0,0,0,3.238,14.674q3.26-.3,6.658-.542A47.693,47.693,0,0,1,38.346,39.06Z"/><path class="cls-5" d="M40.444,53.192q-3.4.24-6.658.542A34.953,34.953,0,0,0,44.447,66.888q1.514-.222,3.069-.41A38.341,38.341,0,0,1,40.444,53.192Z"/><path class="cls-6" d="M53.22,6.43a34.671,34.671,0,0,0-8.774,4.8q1.515.221,3.07.41A28.267,28.267,0,0,1,53.22,6.43Z"/><path class="cls-7" d="M47.516,66.478q-1.554.189-3.069.41a34.7,34.7,0,0,0,8.773,4.8A28.355,28.355,0,0,1,47.516,66.478Z"/><path class="cls-8" d="M40.444,24.928q-3.4-.242-6.658-.542A34.677,34.677,0,0,0,30.548,39.06h7.8A47.7,47.7,0,0,1,40.444,24.928Z"/><path class="cls-9" d="M47.516,11.643q-1.554-.189-3.07-.41a34.947,34.947,0,0,0-10.66,13.153q3.258.3,6.658.542A38.336,38.336,0,0,1,47.516,11.643Z"/><path class="cls-10" d="M90.267,24.928c2.263-.161,4.486-.341,6.657-.542A34.945,34.945,0,0,0,86.265,11.233q-1.515.221-3.071.41A38.338,38.338,0,0,1,90.267,24.928Z"/><path class="cls-11" d="M77.491,71.691a34.719,34.719,0,0,0,8.774-4.8q-1.515-.222-3.071-.41A28.3,28.3,0,0,1,77.491,71.691Z"/><path class="cls-12" d="M83.194,66.478q1.555.189,3.071.41A34.948,34.948,0,0,0,96.924,53.734c-2.171-.2-4.394-.382-6.657-.542A38.343,38.343,0,0,1,83.194,66.478Z"/><path class="cls-13" d="M92.364,39.06a47.725,47.725,0,0,1-2.1,14.132c2.263.16,4.486.341,6.657.542a34.658,34.658,0,0,0,3.238-14.674Z"/><path class="cls-13" d="M92.364,39.06h7.8a34.662,34.662,0,0,0-3.238-14.674c-2.171.2-4.394.381-6.657.542A47.73,47.73,0,0,1,92.364,39.06Z"/><path class="cls-14" d="M83.194,11.643q1.555-.189,3.071-.41a34.688,34.688,0,0,0-8.774-4.8A28.209,28.209,0,0,1,83.194,11.643Z"/><path class="cls-15" d="M70.052,4.57a34.6,34.6,0,0,1,7.439,1.86"/><path class="cls-16" d="M53.22,6.43a34.507,34.507,0,0,1,7.439-1.86"/><path class="cls-17" d="M77.491,71.691a34.593,34.593,0,0,1-7.439,1.859"/><path class="cls-18" d="M60.659,73.55a34.564,34.564,0,0,1-7.439-1.859"/><path class="cls-19" d="M51.09,39.06H38.346a47.693,47.693,0,0,0,2.1,14.132c3.772-.268,7.664-.476,11.654-.619A88.458,88.458,0,0,1,51.09,39.06Z"/><path class="cls-20" d="M40.444,53.192a38.341,38.341,0,0,0,7.072,13.286c2.619-.321,5.323-.57,8.1-.747A57.721,57.721,0,0,1,52.1,52.573C48.108,52.716,44.216,52.924,40.444,53.192Z"/><path class="cls-21" d="M78.612,52.573c3.991.143,7.883.351,11.655.619a47.725,47.725,0,0,0,2.1-14.132H79.62A88.331,88.331,0,0,1,78.612,52.573Z"/><path class="cls-22" d="M47.516,11.643c2.619.32,5.323.57,8.1.746A21.676,21.676,0,0,1,60.659,4.57,34.507,34.507,0,0,0,53.22,6.43,28.267,28.267,0,0,0,47.516,11.643Z"/><path class="cls-23" d="M90.267,24.928a38.338,38.338,0,0,0-7.073-13.285q-3.928.48-8.095.746a57.749,57.749,0,0,1,3.513,13.159C82.6,25.4,86.5,25.2,90.267,24.928Z"/><path class="cls-24" d="M52.1,25.548c-3.99-.144-7.882-.352-11.654-.62a47.7,47.7,0,0,0-2.1,14.132H51.09A88.445,88.445,0,0,1,52.1,25.548Z"/><path class="cls-25" d="M55.612,12.389c-2.773-.176-5.477-.426-8.1-.746a38.336,38.336,0,0,0-7.072,13.285c3.772.268,7.664.476,11.654.62A57.8,57.8,0,0,1,55.612,12.389Z"/><path class="cls-26" d="M75.1,65.731q4.159.266,8.095.747a38.343,38.343,0,0,0,7.073-13.286c-3.772-.268-7.664-.476-11.655-.619A57.726,57.726,0,0,1,75.1,65.731Z"/><path class="cls-27" d="M75.1,12.389q4.159-.264,8.095-.746a28.209,28.209,0,0,0-5.7-5.213,34.6,34.6,0,0,0-7.439-1.86A21.7,21.7,0,0,1,75.1,12.389Z"/><path class="cls-28" d="M55.613,65.731c-2.774.177-5.478.426-8.1.747a28.355,28.355,0,0,0,5.7,5.213,34.564,34.564,0,0,0,7.439,1.859A21.653,21.653,0,0,1,55.613,65.731Z"/><path class="cls-29" d="M78.612,25.548A88.318,88.318,0,0,1,79.62,39.06H92.364a47.73,47.73,0,0,0-2.1-14.132C86.5,25.2,82.6,25.4,78.612,25.548Z"/><path class="cls-30" d="M83.194,66.478Q79.266,66,75.1,65.731a21.7,21.7,0,0,1-5.047,7.819,34.593,34.593,0,0,0,7.439-1.859A28.3,28.3,0,0,0,83.194,66.478Z"/><path class="cls-31" d="M60.659,4.57a35.163,35.163,0,0,1,4.7-.316"/><path class="cls-32" d="M65.355,4.254a35.166,35.166,0,0,1,4.7.316"/><path class="cls-33" d="M65.355,73.866a35,35,0,0,1-4.7-.316"/><path class="cls-34" d="M70.052,73.55a35,35,0,0,1-4.7.316"/><path class="cls-35" d="M51.09,39.06A88.458,88.458,0,0,0,52.1,52.573c4.316-.157,8.743-.24,13.257-.24V39.06Z"/><path class="cls-36" d="M65.355,52.333h0c4.514,0,8.942.083,13.256.24A88.331,88.331,0,0,0,79.62,39.06H65.355Z"/><path class="cls-37" d="M65.355,39.06H79.62a88.318,88.318,0,0,0-1.008-13.512c-4.315.157-8.742.239-13.257.239Z"/><path class="cls-38" d="M65.356,52.333h0v13.09h0c3.323,0,6.578.105,9.743.308a57.726,57.726,0,0,0,3.513-13.158C74.3,52.416,69.87,52.333,65.356,52.333Z"/><path class="cls-39" d="M65.355,25.787h0c-4.514,0-8.941-.082-13.256-.239A88.445,88.445,0,0,0,51.09,39.06H65.355Z"/><path class="cls-40" d="M65.355,25.787c4.515,0,8.942-.082,13.257-.239A57.749,57.749,0,0,0,75.1,12.389c-3.165.2-6.42.308-9.744.308Z"/><path class="cls-41" d="M65.355,65.423v8.443a35,35,0,0,0,4.7-.316A21.7,21.7,0,0,0,75.1,65.731c-3.165-.2-6.42-.308-9.743-.308Z"/><path class="cls-42" d="M65.355,52.333c-4.514,0-8.941.083-13.257.24a57.721,57.721,0,0,0,3.515,13.158c3.164-.2,6.419-.308,9.742-.308Z"/><path class="cls-43" d="M55.613,65.731a21.653,21.653,0,0,0,5.046,7.819,35,35,0,0,0,4.7.316V65.423C62.032,65.423,58.777,65.528,55.613,65.731Z"/><path class="cls-44" d="M65.354,25.787h0V12.7h0c-3.322,0-6.577-.1-9.742-.308A57.8,57.8,0,0,0,52.1,25.548C56.413,25.705,60.84,25.787,65.354,25.787Z"/><path class="cls-45" d="M65.355,12.7V4.254a35.163,35.163,0,0,0-4.7.316,21.676,21.676,0,0,0-5.047,7.819c3.165.2,6.42.308,9.742.308Z"/><path class="cls-46" d="M75.1,12.389A21.7,21.7,0,0,0,70.052,4.57a35.166,35.166,0,0,0-4.7-.316V12.7C68.679,12.7,71.934,12.592,75.1,12.389Z"/><path class="cls-3" d="M39.582,51.174c.108-2.491.627-14.375.627-14.375l-3.768,5.3s-5.2,7.318-6.2,8.722L16.176,50.28l8.331,8.6L13.885,73.812l16.52-8.851,8.207,8.466s.5-11.446.575-13.169c1.592-.855,15.853-8.5,15.853-8.5Zm-2.267,7.905-.428,9.81-6.111-6.306L20.2,68.253,27,58.687l-6.111-6.3,10.316.394,6.8-9.566-.427,9.808,10.316.395Z"/><polygon class="cls-47" points="37.579 53.018 38.006 43.21 31.204 52.776 20.888 52.382 26.999 58.687 20.196 68.253 30.776 62.583 36.887 68.889 37.315 59.079 47.895 53.413 37.579 53.018"/></symbol></defs><title>Asset 2</title><g id="Layer_2" data-name="Layer 2"><g id="Layer_1-2" data-name="Layer 1"><use width="104.416" height="78.12" transform="translate(17.004 7.5) scale(0.386 0.384)" xlink:href="#World"/><path class="cls-2" d="M70.626,13.644a4.806,4.806,0,0,1,1.9,1.86,5.3,5.3,0,0,1,.689,2.687,5.24,5.24,0,0,1-.689,2.677,4.947,4.947,0,0,1-1.885,1.861,5.364,5.364,0,0,1-2.665.671,5.473,5.473,0,0,1-2.688-.66A4.845,4.845,0,0,1,63.4,20.893a5.644,5.644,0,0,1,0-5.4,4.847,4.847,0,0,1,1.886-1.848,5.732,5.732,0,0,1,5.341,0Zm-4.178,1.92A2.693,2.693,0,0,0,65.4,16.62a3.155,3.155,0,0,0-.384,1.571,3.2,3.2,0,0,0,.384,1.6,2.693,2.693,0,0,0,1.05,1.056,3.073,3.073,0,0,0,1.525.372,2.966,2.966,0,0,0,1.49-.372,2.637,2.637,0,0,0,1.027-1.056,3.224,3.224,0,0,0,.373-1.572,3.278,3.278,0,0,0-.373-1.6,2.613,2.613,0,0,0-1.038-1.056,2.981,2.981,0,0,0-1.479-.372A3.073,3.073,0,0,0,66.448,15.564Zm12.681,9.924v7.68H76.712V27.527H65.556V25.488Zm-1.671-10.68V16.9H71.45V14.808Zm0,4.7V21.6H71.45V19.512Zm1.671-7.656V24.432H76.712V11.856Z"/><path class="cls-2" d="M88.862,13.56v3.408a17.976,17.976,0,0,1-.654,4.9A13.474,13.474,0,0,1,86.3,25.98a9.006,9.006,0,0,1-2.97,2.749l-1.491-2.113a7.6,7.6,0,0,0,2.71-2.292,11.4,11.4,0,0,0,1.762-3.431,12.84,12.84,0,0,0,.61-3.925V13.56Zm.43,0v3.408a12.2,12.2,0,0,0,.587,3.768,11.108,11.108,0,0,0,1.683,3.287,7.438,7.438,0,0,0,2.608,2.233L92.7,28.3a8.218,8.218,0,0,1-2.88-2.628,13.2,13.2,0,0,1-1.817-3.96,17.371,17.371,0,0,1-.633-4.74V13.56Zm8.514-1.7V33.168h-2.44V11.856Zm3.093,8.376v2.161H97.241V20.232Z"/><path class="cls-2" d="M110.271,13.152v3.072h4.653V13.152h2.416V23.424h-9.486V13.152ZM122.851,25.7v7.464h-2.417V27.744h-10.84V25.7Zm-12.58-4.319h4.653V18.216h-4.653Zm12.58-9.529V24.648h-2.417V11.856Zm2.8,5.3V19.3H122.2V17.16Z"/><path class="cls-2" d="M145,20.52v2.064H126.869V20.52Zm-2.258,3.72V29.4H131.432v2.208h-2.395V27.576h11.337V26.16H128.992V24.24Zm.587,6.792V33h-14.3V31.032ZM142.678,12.5v6.624h-13.5V12.5ZM131.544,14.52v2.592h8.763V14.52Zm5.6,7.512v3.1h-2.439v-3.1Z"/><path class="cls-2" d="M153.01,22.536q3.129-.146,5.815-.528l.181,1.847a45.624,45.624,0,0,1-5.86.709q-3.082.18-6.516.18L146.4,22.68Q149.883,22.68,153.01,22.536Zm3.286-9.12V15.5H147.6V13.416ZM151.8,26.4v4.92h-2.416V26.4Zm11.314,4.272V32.76h-13.73V30.672ZM152.683,18.288v5.353h-2.371V18.288Zm5.058-4.872v1.248q0,1.632-.079,3.06a23.1,23.1,0,0,1-.44,3.228l-2.349-.288a28.032,28.032,0,0,0,.406-3.1q.091-1.344.091-2.9V13.416Zm4.72-1.584V27.84h-2.439V11.832Zm2.62,6.721v2.088h-3.613V18.553Z"/><rect class="cls-48" width="190" height="45"/></g></g></svg>