<svg width="47" height="17" viewBox="0 0 47 17" fill="none" xmlns="http://www.w3.org/2000/svg">
<rect x="0.5" y="0.5" width="46" height="16" rx="8" stroke="#F00A4F"/>
<path d="M16.4551 13.9727H15.5293V3.53125H16.4551V13.9727ZM10.9121 4.33984C11.4277 4.33984 11.8867 4.48828 12.2891 4.78516C12.6914 5.08203 13.0059 5.50586 13.2324 6.05664C13.459 6.60742 13.5723 7.24609 13.5723 7.97266C13.5723 8.69922 13.459 9.33594 13.2324 9.88281C13.0059 10.4297 12.6914 10.8516 12.2891 11.1484C11.8867 11.4453 11.4277 11.5938 10.9121 11.5938C10.3965 11.5938 9.9375 11.4453 9.53516 11.1484C9.13281 10.8516 8.81836 10.4297 8.5918 9.88281C8.36523 9.33594 8.25195 8.69922 8.25195 7.97266C8.25195 7.24609 8.36523 6.60742 8.5918 6.05664C8.81836 5.50586 9.13281 5.08203 9.53516 4.78516C9.9375 4.48828 10.3965 4.33984 10.9121 4.33984ZM10.9121 5.16016C10.5684 5.16016 10.2617 5.27734 9.99219 5.51172C9.72266 5.74609 9.51367 6.07617 9.36523 6.50195C9.2168 6.92773 9.14258 7.41797 9.14258 7.97266C9.14258 8.53125 9.2168 9.02344 9.36523 9.44922C9.51367 9.87109 9.72266 10.1973 9.99219 10.4277C10.2617 10.6582 10.5684 10.7734 10.9121 10.7734C11.2598 10.7734 11.5664 10.6582 11.832 10.4277C12.1016 10.1973 12.3105 9.87109 12.459 9.44922C12.6074 9.02344 12.6816 8.53125 12.6816 7.97266C12.6816 7.41406 12.6074 6.92383 12.459 6.50195C12.3105 6.07617 12.1016 5.74609 11.832 5.51172C11.5664 5.27734 11.2598 5.16016 10.9121 5.16016ZM27.084 11.4531H26.2051V3.53125H27.084V11.4531ZM24.4941 7.32812H22.502V6.56641H24.4941V7.32812ZM25.0918 11.1367H24.2129V3.74219H25.0918V11.1367ZM19.584 6.13281H21.9043V4.375H22.7715V9.47266H18.7168V4.375H19.584V6.13281ZM21.9043 8.71094V6.85938H19.584V8.71094H21.9043ZM27.4004 13.7266H20.252V12.9531H27.4004V13.7266ZM21.166 13.3516H20.252V10.3867H21.166V13.3516ZM37.0449 9.91797H29.8379V9.16797H37.0449V9.91797ZM38.1465 12.5898H28.6074V11.8281H38.1465V12.5898ZM36.9277 5.20703H30.7754V9.39062H29.8379V4.43359H36.9277V5.20703ZM36.7051 7.49219H30.4824V6.75391H36.7051V7.49219Z" fill="#F00A4F"/>
</svg>
