<svg width="47" height="17" viewBox="0 0 47 17" fill="none" xmlns="http://www.w3.org/2000/svg">
<rect width="47" height="17" rx="8.5" fill="#ED2D72"/>
<path d="M18.2617 10.1172C19.0039 10.1172 19.6504 10.1914 20.2012 10.3398C20.752 10.4883 21.1758 10.707 21.4727 10.9961C21.7695 11.2852 21.918 11.6289 21.918 12.0273C21.918 12.4219 21.7695 12.7598 21.4727 13.041C21.1758 13.3262 20.752 13.5449 20.2012 13.6973C19.6504 13.8496 19.0039 13.9258 18.2617 13.9258C17.5195 13.9258 16.875 13.8496 16.3281 13.6973C15.7812 13.5449 15.3594 13.3262 15.0625 13.041C14.7656 12.7598 14.6172 12.4219 14.6172 12.0273C14.6172 11.6289 14.7656 11.2852 15.0625 10.9961C15.3594 10.707 15.7812 10.4883 16.3281 10.3398C16.875 10.1914 17.5195 10.1172 18.2617 10.1172ZM18.2617 10.8203C17.7109 10.8203 17.2285 10.8691 16.8145 10.9668C16.4043 11.0645 16.0879 11.2051 15.8652 11.3887C15.6426 11.5684 15.5312 11.7812 15.5312 12.0273C15.5312 12.2656 15.6426 12.4746 15.8652 12.6543C16.0879 12.8301 16.4043 12.9648 16.8145 13.0586C17.2285 13.1523 17.7109 13.1992 18.2617 13.1992C18.8125 13.1992 19.293 13.1523 19.7031 13.0586C20.1172 12.9648 20.4355 12.8301 20.6582 12.6543C20.8848 12.4746 21 12.2656 21.0039 12.0273C21 11.7812 20.8848 11.5684 20.6582 11.3887C20.4355 11.2051 20.1172 11.0645 19.7031 10.9668C19.293 10.8691 18.8125 10.8203 18.2617 10.8203ZM21.4492 4.82031H14.6875V4.07031H21.4492V4.82031ZM23.043 9.14453H13.5625V8.39453H23.043V9.14453ZM18.3906 8.62891H17.4883V6.37891H18.3906V8.62891ZM21.8359 4.99609C21.832 5.55078 21.8125 6.02539 21.7773 6.41992C21.7461 6.81445 21.668 7.24609 21.543 7.71484L20.6406 7.60938C20.7617 7.14453 20.8379 6.72461 20.8691 6.34961C20.9043 5.97461 20.9219 5.53906 20.9219 5.04297V4.94922V4.07031H21.8359V4.94922V4.99609ZM27.4844 6.73047C27.4844 7.44922 27.3477 8.1582 27.0742 8.85742C26.8008 9.55664 26.4336 10.1777 25.9727 10.7207C25.5156 11.2637 25.0156 11.6719 24.4727 11.9453L23.9219 11.2188C24.418 10.9805 24.8789 10.6211 25.3047 10.1406C25.7344 9.65625 26.0781 9.11328 26.3359 8.51172C26.5938 7.91016 26.7227 7.31641 26.7227 6.73047V5.00781H27.4844V6.73047ZM27.6484 6.73047C27.6484 7.30469 27.7773 7.87695 28.0352 8.44727C28.293 9.01367 28.6367 9.51953 29.0664 9.96484C29.4961 10.4102 29.9648 10.7422 30.4727 10.9609L29.957 11.6875C29.3906 11.4297 28.875 11.0469 28.4102 10.5391C27.9492 10.0312 27.582 9.44727 27.3086 8.78711C27.0391 8.12305 26.9062 7.4375 26.9102 6.73047V5.00781H27.6484V6.73047ZM30.1328 5.37109H24.2617V4.60938H30.1328V5.37109ZM32.5117 13.9492H31.5859V3.53125H32.5117V13.9492Z" fill="white"/>
</svg>
